<svg xmlns="http://www.w3.org/2000/svg" width="1080" height="1080" viewBox="0 0 1080 1080" font-family="Segoe UI, Helvetica, Arial, sans-serif">
<rect width="1080" height="1080" fill="rgb(247, 243, 234)"/>
<text x="540.0" y="118" text-anchor="middle" font-size="64" font-weight="800" letter-spacing="6" fill="rgb(28, 28, 32)">CRINGIOMETRO</text>
<text x="540.0" y="162" text-anchor="middle" font-size="26" fill="rgb(110, 108, 100)">cringe dichiarato</text>
<path d="M270.0,470.0 A270,270 0 0 1 270.5,453.0" stroke="rgb(52, 168, 83)" stroke-width="58" fill="none"/>
<path d="M270.4,455.9 A270,270 0 0 1 271.8,439.0" stroke="rgb(58, 168, 80)" stroke-width="58" fill="none"/>
<path d="M271.5,441.8 A270,270 0 0 1 273.8,425.0" stroke="rgb(65, 168, 77)" stroke-width="58" fill="none"/>
<path d="M273.3,427.8 A270,270 0 0 1 276.5,411.1" stroke="rgb(71, 169, 74)" stroke-width="58" fill="none"/>
<path d="M275.9,413.9 A270,270 0 0 1 279.9,397.4" stroke="rgb(78, 169, 71)" stroke-width="58" fill="none"/>
<path d="M279.2,400.1 A270,270 0 0 1 284.1,383.9" stroke="rgb(84, 170, 68)" stroke-width="58" fill="none"/>
<path d="M283.2,386.6 A270,270 0 0 1 289.0,370.6" stroke="rgb(91, 170, 66)" stroke-width="58" fill="none"/>
<path d="M287.9,373.2 A270,270 0 0 1 294.5,357.6" stroke="rgb(97, 170, 63)" stroke-width="58" fill="none"/>
<path d="M293.3,360.2 A270,270 0 0 1 300.7,344.9" stroke="rgb(104, 171, 60)" stroke-width="58" fill="none"/>
<path d="M299.4,347.4 A270,270 0 0 1 307.6,332.6" stroke="rgb(110, 171, 57)" stroke-width="58" fill="none"/>
<path d="M306.2,335.0 A270,270 0 0 1 315.1,320.6" stroke="rgb(117, 172, 54)" stroke-width="58" fill="none"/>
<path d="M313.6,322.9 A270,270 0 0 1 323.2,309.0" stroke="rgb(123, 172, 52)" stroke-width="58" fill="none"/>
<path d="M321.6,311.3 A270,270 0 0 1 332.0,297.9" stroke="rgb(130, 172, 49)" stroke-width="58" fill="none"/>
<path d="M330.2,300.1 A270,270 0 0 1 341.3,287.2" stroke="rgb(136, 173, 46)" stroke-width="58" fill="none"/>
<path d="M339.4,289.3 A270,270 0 0 1 351.1,277.1" stroke="rgb(143, 173, 43)" stroke-width="58" fill="none"/>
<path d="M349.1,279.1 A270,270 0 0 1 361.4,267.5" stroke="rgb(149, 174, 40)" stroke-width="58" fill="none"/>
<path d="M359.3,269.4 A270,270 0 0 1 372.3,258.4" stroke="rgb(156, 174, 37)" stroke-width="58" fill="none"/>
<path d="M370.1,260.2 A270,270 0 0 1 383.6,249.9" stroke="rgb(162, 174, 35)" stroke-width="58" fill="none"/>
<path d="M381.3,251.6 A270,270 0 0 1 395.3,242.0" stroke="rgb(169, 175, 32)" stroke-width="58" fill="none"/>
<path d="M392.9,243.6 A270,270 0 0 1 407.5,234.8" stroke="rgb(175, 175, 29)" stroke-width="58" fill="none"/>
<path d="M405.0,236.2 A270,270 0 0 1 419.9,228.2" stroke="rgb(182, 176, 26)" stroke-width="58" fill="none"/>
<path d="M417.4,229.4 A270,270 0 0 1 432.8,222.2" stroke="rgb(188, 176, 23)" stroke-width="58" fill="none"/>
<path d="M430.2,223.3 A270,270 0 0 1 445.9,216.9" stroke="rgb(195, 176, 21)" stroke-width="58" fill="none"/>
<path d="M443.2,217.9 A270,270 0 0 1 459.3,212.4" stroke="rgb(201, 177, 18)" stroke-width="58" fill="none"/>
<path d="M456.6,213.2 A270,270 0 0 1 472.9,208.5" stroke="rgb(208, 177, 15)" stroke-width="58" fill="none"/>
<path d="M470.1,209.2 A270,270 0 0 1 486.6,205.3" stroke="rgb(214, 178, 12)" stroke-width="58" fill="none"/>
<path d="M483.9,205.9 A270,270 0 0 1 500.6,202.9" stroke="rgb(221, 178, 9)" stroke-width="58" fill="none"/>
<path d="M497.8,203.3 A270,270 0 0 1 514.6,201.2" stroke="rgb(227, 178, 7)" stroke-width="58" fill="none"/>
<path d="M511.8,201.5 A270,270 0 0 1 528.7,200.2" stroke="rgb(234, 179, 4)" stroke-width="58" fill="none"/>
<path d="M525.9,200.4 A270,270 0 0 1 542.8,200.0" stroke="rgb(240, 179, 1)" stroke-width="58" fill="none"/>
<path d="M540.0,200.0 A270,270 0 0 1 557.0,200.5" stroke="rgb(243, 177, 0)" stroke-width="58" fill="none"/>
<path d="M554.1,200.4 A270,270 0 0 1 571.0,201.8" stroke="rgb(242, 173, 1)" stroke-width="58" fill="none"/>
<path d="M568.2,201.5 A270,270 0 0 1 585.0,203.8" stroke="rgb(241, 168, 3)" stroke-width="58" fill="none"/>
<path d="M582.2,203.3 A270,270 0 0 1 598.9,206.5" stroke="rgb(240, 164, 4)" stroke-width="58" fill="none"/>
<path d="M596.1,205.9 A270,270 0 0 1 612.6,209.9" stroke="rgb(239, 159, 5)" stroke-width="58" fill="none"/>
<path d="M609.9,209.2 A270,270 0 0 1 626.1,214.1" stroke="rgb(238, 155, 6)" stroke-width="58" fill="none"/>
<path d="M623.4,213.2 A270,270 0 0 1 639.4,219.0" stroke="rgb(238, 150, 8)" stroke-width="58" fill="none"/>
<path d="M636.8,217.9 A270,270 0 0 1 652.4,224.5" stroke="rgb(237, 146, 9)" stroke-width="58" fill="none"/>
<path d="M649.8,223.3 A270,270 0 0 1 665.1,230.7" stroke="rgb(236, 141, 10)" stroke-width="58" fill="none"/>
<path d="M662.6,229.4 A270,270 0 0 1 677.4,237.6" stroke="rgb(235, 137, 11)" stroke-width="58" fill="none"/>
<path d="M675.0,236.2 A270,270 0 0 1 689.4,245.1" stroke="rgb(234, 133, 13)" stroke-width="58" fill="none"/>
<path d="M687.1,243.6 A270,270 0 0 1 701.0,253.2" stroke="rgb(233, 128, 14)" stroke-width="58" fill="none"/>
<path d="M698.7,251.6 A270,270 0 0 1 712.1,262.0" stroke="rgb(232, 124, 15)" stroke-width="58" fill="none"/>
<path d="M709.9,260.2 A270,270 0 0 1 722.8,271.3" stroke="rgb(231, 119, 16)" stroke-width="58" fill="none"/>
<path d="M720.7,269.4 A270,270 0 0 1 732.9,281.1" stroke="rgb(230, 115, 18)" stroke-width="58" fill="none"/>
<path d="M730.9,279.1 A270,270 0 0 1 742.5,291.4" stroke="rgb(229, 110, 19)" stroke-width="58" fill="none"/>
<path d="M740.6,289.3 A270,270 0 0 1 751.6,302.3" stroke="rgb(228, 106, 20)" stroke-width="58" fill="none"/>
<path d="M749.8,300.1 A270,270 0 0 1 760.1,313.6" stroke="rgb(227, 101, 21)" stroke-width="58" fill="none"/>
<path d="M758.4,311.3 A270,270 0 0 1 768.0,325.3" stroke="rgb(227, 97, 23)" stroke-width="58" fill="none"/>
<path d="M766.4,322.9 A270,270 0 0 1 775.2,337.5" stroke="rgb(226, 92, 24)" stroke-width="58" fill="none"/>
<path d="M773.8,335.0 A270,270 0 0 1 781.8,349.9" stroke="rgb(225, 88, 25)" stroke-width="58" fill="none"/>
<path d="M780.6,347.4 A270,270 0 0 1 787.8,362.8" stroke="rgb(224, 83, 26)" stroke-width="58" fill="none"/>
<path d="M786.7,360.2 A270,270 0 0 1 793.1,375.9" stroke="rgb(223, 79, 28)" stroke-width="58" fill="none"/>
<path d="M792.1,373.2 A270,270 0 0 1 797.6,389.3" stroke="rgb(222, 74, 29)" stroke-width="58" fill="none"/>
<path d="M796.8,386.6 A270,270 0 0 1 801.5,402.9" stroke="rgb(221, 70, 30)" stroke-width="58" fill="none"/>
<path d="M800.8,400.1 A270,270 0 0 1 804.7,416.6" stroke="rgb(220, 65, 31)" stroke-width="58" fill="none"/>
<path d="M804.1,413.9 A270,270 0 0 1 807.1,430.6" stroke="rgb(219, 61, 33)" stroke-width="58" fill="none"/>
<path d="M806.7,427.8 A270,270 0 0 1 808.8,444.6" stroke="rgb(218, 56, 34)" stroke-width="58" fill="none"/>
<path d="M808.5,441.8 A270,270 0 0 1 809.8,458.7" stroke="rgb(217, 52, 35)" stroke-width="58" fill="none"/>
<path d="M809.6,455.9 A270,270 0 0 1 810.0,472.8" stroke="rgb(217, 48, 37)" stroke-width="58" fill="none"/>
<text x="332.0" y="480.0" text-anchor="middle" font-size="28" font-weight="700" fill="rgb(110, 108, 100)">1</text>
<text x="344.5" y="408.9" text-anchor="middle" font-size="28" font-weight="700" fill="rgb(110, 108, 100)">2</text>
<text x="380.7" y="346.3" text-anchor="middle" font-size="28" font-weight="700" fill="rgb(110, 108, 100)">3</text>
<text x="436.0" y="299.9" text-anchor="middle" font-size="28" font-weight="700" fill="rgb(110, 108, 100)">4</text>
<text x="503.9" y="275.2" text-anchor="middle" font-size="28" font-weight="700" fill="rgb(110, 108, 100)">5</text>
<text x="576.1" y="275.2" text-anchor="middle" font-size="28" font-weight="700" fill="rgb(110, 108, 100)">6</text>
<text x="644.0" y="299.9" text-anchor="middle" font-size="28" font-weight="700" fill="rgb(110, 108, 100)">7</text>
<text x="699.3" y="346.3" text-anchor="middle" font-size="28" font-weight="700" fill="rgb(110, 108, 100)">8</text>
<text x="735.5" y="408.9" text-anchor="middle" font-size="28" font-weight="700" fill="rgb(110, 108, 100)">9</text>
<text x="748.0" y="480.0" text-anchor="middle" font-size="28" font-weight="700" fill="rgb(110, 108, 100)">10</text>
<line x1="540.0" y1="470" x2="665.0" y2="253.5" stroke="rgb(28, 28, 32)" stroke-width="10" stroke-linecap="round"/>
<circle cx="540.0" cy="470" r="22" fill="rgb(28, 28, 32)"/>
<text x="540.0" y="590" text-anchor="middle" font-size="150" font-weight="900" fill="rgb(235, 136, 12)">7<tspan font-size="56" fill="rgb(110, 108, 100)">/10</tspan></text>
<text x="540.0" y="640" text-anchor="middle" font-size="34" font-weight="700" letter-spacing="3" fill="rgb(235, 136, 12)">IMBARAZZANTE</text>
<rect x="192.9" y="710" rx="24" ry="24" width="312.8" height="48" fill="rgb(255, 255, 255)" stroke="rgb(110, 108, 100)" stroke-width="2"/>
<text x="349.3" y="742" text-anchor="middle" font-size="22" font-weight="600" fill="rgb(28, 28, 32)">C01 Parabola forzata</text>
<rect x="519.7" y="710" rx="24" ry="24" width="367.4" height="48" fill="rgb(255, 255, 255)" stroke="rgb(110, 108, 100)" stroke-width="2"/>
<text x="703.4" y="742" text-anchor="middle" font-size="22" font-weight="600" fill="rgb(28, 28, 32)">C13 Numeri finti-precisi</text>
<rect x="118.2" y="768" rx="24" ry="24" width="285.5" height="48" fill="rgb(255, 255, 255)" stroke="rgb(110, 108, 100)" stroke-width="2"/>
<text x="260.9" y="800" text-anchor="middle" font-size="22" font-weight="600" fill="rgb(28, 28, 32)">C08 Aforisma vuoto</text>
<rect x="417.7" y="768" rx="24" ry="24" width="190.0" height="48" fill="rgb(255, 255, 255)" stroke="rgb(110, 108, 100)" stroke-width="2"/>
<text x="512.7" y="800" text-anchor="middle" font-size="22" font-weight="600" fill="rgb(28, 28, 32)">C21 Broetry</text>
<rect x="621.7" y="768" rx="24" ry="24" width="340.1" height="48" fill="rgb(255, 255, 255)" stroke="rgb(110, 108, 100)" stroke-width="2"/>
<text x="791.8" y="800" text-anchor="middle" font-size="22" font-weight="600" fill="rgb(28, 28, 32)">C10 Esca da engagement</text>
<rect x="390.4" y="826" rx="24" ry="24" width="299.2" height="48" fill="rgb(255, 255, 255)" stroke="rgb(110, 108, 100)" stroke-width="2"/>
<text x="540.0" y="858" text-anchor="middle" font-size="22" font-weight="600" fill="rgb(28, 28, 32)">C23 Muro di hashtag</text>
<text x="540.0" y="928.0" text-anchor="middle" font-size="34" font-weight="700" fill="rgb(28, 28, 32)">Un 7 solido. Mancano solo i numeri finti per</text>
<text x="540.0" y="970.0" text-anchor="middle" font-size="34" font-weight="700" fill="rgb(28, 28, 32)">il podio.</text>
<text x="540.0" y="1018.0" text-anchor="middle" font-size="24" font-style="italic" fill="rgb(110, 108, 100)">“Le persone non lasciano le aziende. Lasciano le macchinette…</text>
<text x="540.0" y="1054" text-anchor="middle" font-size="20" fill="rgb(110, 108, 100)">github.com/matteobaccan/LinkedInCringe</text>
</svg>